ffmpeg started on 2025-04-30 at 17:33:00
Report written to "D:\Convert\FFMetrics\reports\psnr_report-6.txt"
Log level: 32
Command line:
ffmpeg -hide_banner -nostdin -i "G:\\\xc0\xed\xe8\xec\xe5\\\xce\xed\xe3\xee\xe8\xed\xe3\xe8\\!_37_\xc7\xe8\xec\xe0_2025\\JamClub\\\xcf\xee\xe4\xed\xff\xf2\xe8\xe5 \xf3\xf0\xee\xe2\xed\xff \xe2 \xee\xe4\xe8\xed\xee\xf7\xea\xf3\\\xd2\xc2-2\\JamClub_Ore_dake_Level_Up_na_Ken_Season_2_06_1080p_HEVC.mkv" -i "G:\\\xc0\xed\xe8\xec\xe5\\\xce\xed\xe3\xee\xe8\xed\xe3\xe8\\!_37_\xc7\xe8\xec\xe0_2025\\JamClub\\\xcf\xee\xe4\xed\xff\xf2\xe8\xe5 \xf3\xf0\xee\xe2\xed\xff \xe2 \xee\xe4\xe8\xed\xee\xf7\xea\xf3\\\xd2\xc2-2\\JamClub_Ore_dake_Level_Up_na_Ken_Season_2_06_1080p.mp4" -lavfi "[0:v]settb=AVTB,setpts=PTS-STARTPTS,format=pix_fmts=yuv420p10,fps=24000/1001,scale=1920:1080:flags=bicubic[main];[1:v]settb=AVTB,setpts=PTS-STARTPTS,format=pix_fmts=yuv420p,fps=24000/1001,scale=1920:1080:flags=bicubic[ref];[main][ref]psnr=eof_action=endall:stats_file='D\\:/Convert/FFMetrics/logs/psnr_logfile-6.txt'" -f null -
Input #0, matroska,webm, from 'G:\Аниме\Онгоинги\!_37_Зима_2025\JamClub\Поднятие уровня в одиночку\ТВ-2\JamClub_Ore_dake_Level_Up_na_Ken_Season_2_06_1080p_HEVC.mkv':
  Metadata:
    COMPATIBLE_BRANDS: isomiso2avc1mp41
    MAJOR_BRAND     : isom
    MINOR_VERSION   : 512
    ENCODER         : Lavf61.7.100
  Duration: 00:24:03.91, start: -0.001000, bitrate: 1813 kb/s
  Stream #0:0: Video: hevc (Main 10), yuv420p10le(tv, bt709, progressive), 1920x1080 [SAR 1:1 DAR 16:9], 23.98 fps, 23.98 tbr, 1k tbn (default)
      Metadata:
        HANDLER_NAME    : VideoHandler
        VENDOR_ID       : [0][0][0][0]
        ENCODER         : Lavc61.19.100 libx265
        BPS             : 1616817
        DURATION        : 00:24:02.190708333
        NUMBER_OF_FRAMES: 34578
        NUMBER_OF_BYTES : 291469814
        _STATISTICS_WRITING_APP: mkvpropedit v66.0.0 ('Josie') 64-bit
        _STATISTICS_WRITING_DATE_UTC: 2025-04-30 08:32:56
        _STATISTICS_TAGS: BPS DURATION NUMBER_OF_FRAMES NUMBER_OF_BYTES
  Stream #0:1(eng): Audio: aac (LC), 48000 Hz, stereo, fltp (default)
      Metadata:
        HANDLER_NAME    : SoundHandler
        VENDOR_ID       : [0][0][0][0]
        ENCODER         : Lavc61.19.100 aac
        BPS             : 194939
        DURATION        : 00:24:03.864000000
        NUMBER_OF_FRAMES: 67682
        NUMBER_OF_BYTES : 35183235
        _STATISTICS_WRITING_APP: mkvpropedit v66.0.0 ('Josie') 64-bit
        _STATISTICS_WRITING_DATE_UTC: 2025-04-30 08:32:56
        _STATISTICS_TAGS: BPS DURATION NUMBER_OF_FRAMES NUMBER_OF_BYTES
Input #1, mov,mp4,m4a,3gp,3g2,mj2, from 'G:\Аниме\Онгоинги\!_37_Зима_2025\JamClub\Поднятие уровня в одиночку\ТВ-2\JamClub_Ore_dake_Level_Up_na_Ken_Season_2_06_1080p.mp4':
  Metadata:
    major_brand     : isom
    minor_version   : 512
    compatible_brands: isomiso2avc1mp41
    encoder         : Lavf60.16.100
  Duration: 00:24:03.88, start: 0.000000, bitrate: 5099 kb/s
  Stream #1:0[0x1](und): Video: h264 (High) (avc1 / 0x31637661), yuv420p(progressive), 1920x1080 [SAR 1:1 DAR 16:9], 4906 kb/s, 23.98 fps, 23.98 tbr, 90k tbn (default)
      Metadata:
        handler_name    : VideoHandler
        vendor_id       : [0][0][0][0]
  Stream #1:1[0x2](eng): Audio: aac (LC) (mp4a / 0x6134706D), 48000 Hz, stereo, fltp, 191 kb/s (default)
      Metadata:
        handler_name    : SoundHandler
        vendor_id       : [0][0][0][0]
Stream mapping:
  Stream #0:0 (hevc) -> settb:default
  Stream #1:0 (h264) -> settb:default
  psnr:default -> Stream #0:0 (wrapped_avframe)
  Stream #0:1 -> #0:1 (aac (native) -> pcm_s16le (native))
Output #0, null, to 'pipe:':
  Metadata:
    COMPATIBLE_BRANDS: isomiso2avc1mp41
    MAJOR_BRAND     : isom
    MINOR_VERSION   : 512
    encoder         : Lavf61.7.100
  Stream #0:0: Video: wrapped_avframe, yuv420p10le(tv, bt709, progressive), 1920x1080 [SAR 1:1 DAR 16:9], q=2-31, 200 kb/s, 23.98 fps, 23.98 tbn
      Metadata:
        encoder         : Lavc61.19.100 wrapped_avframe
  Stream #0:1(eng): Audio: pcm_s16le, 48000 Hz, stereo, s16, 1536 kb/s (default)
      Metadata:
        HANDLER_NAME    : SoundHandler
        VENDOR_ID       : [0][0][0][0]
        _STATISTICS_TAGS: BPS DURATION NUMBER_OF_FRAMES NUMBER_OF_BYTES
        BPS             : 194939
        DURATION        : 00:24:03.864000000
        NUMBER_OF_FRAMES: 67682
        NUMBER_OF_BYTES : 35183235
        _STATISTICS_WRITING_APP: mkvpropedit v66.0.0 ('Josie') 64-bit
        _STATISTICS_WRITING_DATE_UTC: 2025-04-30 08:32:56
        encoder         : Lavc61.19.100 pcm_s16le
frame=  112 fps=0.0 q=-0.0 size=N/A time=00:00:04.67 bitrate=N/A speed=9.08x    frame=  274 fps=264 q=-0.0 size=N/A time=00:00:11.42 bitrate=N/A speed=  11x    frame=  463 fps=299 q=-0.0 size=N/A time=00:00:19.31 bitrate=N/A speed=12.5x    frame=  722 fps=349 q=-0.0 size=N/A time=00:00:30.11 bitrate=N/A speed=14.5x    frame=  970 fps=376 q=-0.0 size=N/A time=00:00:40.45 bitrate=N/A speed=15.7x    frame= 1222 fps=394 q=-0.0 size=N/A time=00:00:50.96 bitrate=N/A speed=16.4x    frame= 1450 fps=402 q=-0.0 size=N/A time=00:01:00.47 bitrate=N/A speed=16.8x    frame= 1711 fps=414 q=-0.0 size=N/A time=00:01:11.36 bitrate=N/A speed=17.3x    frame= 1975 fps=425 q=-0.0 size=N/A time=00:01:22.37 bitrate=N/A speed=17.7x    frame= 2236 fps=433 q=-0.0 size=N/A time=00:01:33.25 bitrate=N/A speed=18.1x    frame= 2464 fps=434 q=-0.0 size=N/A time=00:01:42.76 bitrate=N/A speed=18.1x    frame= 2685 fps=433 q=-0.0 size=N/A time=00:01:51.98 bitrate=N/A speed=18.1x    frame= 2882 fps=430 q=-0.0 size=N/A time=00:02:00.20 bitrate=N/A speed=17.9x    frame= 3083 fps=427 q=-0.0 size=N/A time=00:02:08.58 bitrate=N/A speed=17.8x    frame= 3286 fps=425 q=-0.0 size=N/A time=00:02:17.05 bitrate=N/A speed=17.7x    frame= 3475 fps=421 q=-0.0 size=N/A time=00:02:24.93 bitrate=N/A speed=17.6x    frame= 3650 fps=416 q=-0.0 size=N/A time=00:02:32.23 bitrate=N/A speed=17.4x    frame= 3814 fps=411 q=-0.0 size=N/A time=00:02:39.07 bitrate=N/A speed=17.1x    frame= 3994 fps=407 q=-0.0 size=N/A time=00:02:46.58 bitrate=N/A speed=  17x    frame= 4183 fps=406 q=-0.0 size=N/A time=00:02:54.46 bitrate=N/A speed=16.9x    frame= 4336 fps=400 q=-0.0 size=N/A time=00:03:00.84 bitrate=N/A speed=16.7x    frame= 4512 fps=398 q=-0.0 size=N/A time=00:03:08.18 bitrate=N/A speed=16.6x    frame= 4655 fps=393 q=-0.0 size=N/A time=00:03:14.15 bitrate=N/A speed=16.4x    frame= 4846 fps=391 q=-0.0 size=N/A time=00:03:22.11 bitrate=N/A speed=16.3x    frame= 5068 fps=393 q=-0.0 size=N/A time=00:03:31.37 bitrate=N/A speed=16.4x    frame= 5308 fps=396 q=-0.0 size=N/A time=00:03:41.38 bitrate=N/A speed=16.5x    frame= 5536 fps=398 q=-0.0 size=N/A time=00:03:50.89 bitrate=N/A speed=16.6x    frame= 5803 fps=402 q=-0.0 size=N/A time=00:04:02.03 bitrate=N/A speed=16.8x    frame= 6037 fps=404 q=-0.0 size=N/A time=00:04:11.79 bitrate=N/A speed=16.8x    frame= 6278 fps=406 q=-0.0 size=N/A time=00:04:21.84 bitrate=N/A speed=16.9x    frame= 6521 fps=408 q=-0.0 size=N/A time=00:04:31.98 bitrate=N/A speed=  17x    frame= 6783 fps=411 q=-0.0 size=N/A time=00:04:42.90 bitrate=N/A speed=17.1x    frame= 7033 fps=413 q=-0.0 size=N/A time=00:04:53.33 bitrate=N/A speed=17.2x    frame= 7257 fps=413 q=-0.0 size=N/A time=00:05:02.67 bitrate=N/A speed=17.2x    frame= 7448 fps=412 q=-0.0 size=N/A time=00:05:10.64 bitrate=N/A speed=17.2x    frame= 7676 fps=413 q=-0.0 size=N/A time=00:05:20.15 bitrate=N/A speed=17.2x    frame= 7918 fps=415 q=-0.0 size=N/A time=00:05:30.24 bitrate=N/A speed=17.3x    frame= 8158 fps=416 q=-0.0 size=N/A time=00:05:40.25 bitrate=N/A speed=17.4x    frame= 8409 fps=418 q=-0.0 size=N/A time=00:05:50.72 bitrate=N/A speed=17.4x    frame= 8662 fps=420 q=-0.0 size=N/A time=00:06:01.27 bitrate=N/A speed=17.5x    frame= 8924 fps=422 q=-0.0 size=N/A time=00:06:12.20 bitrate=N/A speed=17.6x    frame= 9157 fps=422 q=-0.0 size=N/A time=00:06:21.92 bitrate=N/A speed=17.6x    frame= 9410 fps=424 q=-0.0 size=N/A time=00:06:32.47 bitrate=N/A speed=17.7x    frame= 9594 fps=422 q=-0.0 size=N/A time=00:06:40.14 bitrate=N/A speed=17.6x    frame= 9829 fps=423 q=-0.0 size=N/A time=00:06:49.95 bitrate=N/A speed=17.6x    frame=10071 fps=424 q=-0.0 size=N/A time=00:07:00.04 bitrate=N/A speed=17.7x    frame=10319 fps=425 q=-0.0 size=N/A time=00:07:10.38 bitrate=N/A speed=17.7x    frame=10562 fps=426 q=-0.0 size=N/A time=00:07:20.52 bitrate=N/A speed=17.8x    frame=10800 fps=427 q=-0.0 size=N/A time=00:07:30.45 bitrate=N/A speed=17.8x    frame=11049 fps=428 q=-0.0 size=N/A time=00:07:40.83 bitrate=N/A speed=17.8x    frame=11298 fps=429 q=-0.0 size=N/A time=00:07:51.22 bitrate=N/A speed=17.9x    frame=11548 fps=430 q=-0.0 size=N/A time=00:08:01.64 bitrate=N/A speed=17.9x    frame=11777 fps=430 q=-0.0 size=N/A time=00:08:11.19 bitrate=N/A speed=17.9x    frame=11991 fps=430 q=-0.0 size=N/A time=00:08:20.12 bitrate=N/A speed=17.9x    frame=12158 fps=428 q=-0.0 size=N/A time=00:08:27.08 bitrate=N/A speed=17.9x    frame=12335 fps=427 q=-0.0 size=N/A time=00:08:34.47 bitrate=N/A speed=17.8x    frame=12504 fps=425 q=-0.0 size=N/A time=00:08:41.52 bitrate=N/A speed=17.7x    frame=12738 fps=425 q=-0.0 size=N/A time=00:08:51.28 bitrate=N/A speed=17.7x    frame=12963 fps=426 q=-0.0 size=N/A time=00:09:00.66 bitrate=N/A speed=17.7x    frame=13131 fps=424 q=-0.0 size=N/A time=00:09:07.67 bitrate=N/A speed=17.7x    frame=13349 fps=424 q=-0.0 size=N/A time=00:09:16.76 bitrate=N/A speed=17.7x    frame=13545 fps=423 q=-0.0 size=N/A time=00:09:24.93 bitrate=N/A speed=17.7x    frame=13752 fps=423 q=-0.0 size=N/A time=00:09:33.57 bitrate=N/A speed=17.6x    frame=13963 fps=423 q=-0.0 size=N/A time=00:09:42.37 bitrate=N/A speed=17.6x    frame=14169 fps=422 q=-0.0 size=N/A time=00:09:50.96 bitrate=N/A speed=17.6x    frame=14383 fps=422 q=-0.0 size=N/A time=00:09:59.89 bitrate=N/A speed=17.6x    frame=14584 fps=422 q=-0.0 size=N/A time=00:10:08.27 bitrate=N/A speed=17.6x    frame=14794 fps=421 q=-0.0 size=N/A time=00:10:17.03 bitrate=N/A speed=17.6x    frame=14980 fps=421 q=-0.0 size=N/A time=00:10:24.79 bitrate=N/A speed=17.5x    frame=15184 fps=420 q=-0.0 size=N/A time=00:10:33.29 bitrate=N/A speed=17.5x    frame=15389 fps=420 q=-0.0 size=N/A time=00:10:41.84 bitrate=N/A speed=17.5x    frame=15631 fps=421 q=-0.0 size=N/A time=00:10:51.94 bitrate=N/A speed=17.5x    frame=15865 fps=421 q=-0.0 size=N/A time=00:11:01.70 bitrate=N/A speed=17.6x    frame=16085 fps=421 q=-0.0 size=N/A time=00:11:10.87 bitrate=N/A speed=17.6x    frame=16316 fps=422 q=-0.0 size=N/A time=00:11:20.51 bitrate=N/A speed=17.6x    frame=16554 fps=422 q=-0.0 size=N/A time=00:11:30.43 bitrate=N/A speed=17.6x    frame=16765 fps=422 q=-0.0 size=N/A time=00:11:39.24 bitrate=N/A speed=17.6x    frame=16984 fps=422 q=-0.0 size=N/A time=00:11:48.37 bitrate=N/A speed=17.6x    frame=17187 fps=422 q=-0.0 size=N/A time=00:11:56.84 bitrate=N/A speed=17.6x    frame=17330 fps=420 q=-0.0 size=N/A time=00:12:02.80 bitrate=N/A speed=17.5x    frame=17482 fps=418 q=-0.0 size=N/A time=00:12:09.14 bitrate=N/A speed=17.4x    frame=17719 fps=419 q=-0.0 size=N/A time=00:12:19.02 bitrate=N/A speed=17.5x    frame=17956 fps=419 q=-0.0 size=N/A time=00:12:28.91 bitrate=N/A speed=17.5x    frame=18169 fps=419 q=-0.0 size=N/A time=00:12:37.79 bitrate=N/A speed=17.5x    frame=18426 fps=420 q=-0.0 size=N/A time=00:12:48.51 bitrate=N/A speed=17.5x    frame=18683 fps=421 q=-0.0 size=N/A time=00:12:59.23 bitrate=N/A speed=17.6x    frame=18956 fps=422 q=-0.0 size=N/A time=00:13:10.62 bitrate=N/A speed=17.6x    frame=19153 fps=422 q=-0.0 size=N/A time=00:13:18.83 bitrate=N/A speed=17.6x    frame=19334 fps=421 q=-0.0 size=N/A time=00:13:26.38 bitrate=N/A speed=17.6x    frame=19499 fps=420 q=-0.0 size=N/A time=00:13:33.27 bitrate=N/A speed=17.5x    frame=19676 fps=419 q=-0.0 size=N/A time=00:13:40.65 bitrate=N/A speed=17.5x    frame=19914 fps=419 q=-0.0 size=N/A time=00:13:50.57 bitrate=N/A speed=17.5x    frame=20117 fps=419 q=-0.0 size=N/A time=00:13:59.04 bitrate=N/A speed=17.5x    frame=20339 fps=419 q=-0.0 size=N/A time=00:14:08.30 bitrate=N/A speed=17.5x    frame=20555 fps=419 q=-0.0 size=N/A time=00:14:17.31 bitrate=N/A speed=17.5x    frame=20724 fps=418 q=-0.0 size=N/A time=00:14:24.36 bitrate=N/A speed=17.4x    frame=20915 fps=418 q=-0.0 size=N/A time=00:14:32.32 bitrate=N/A speed=17.4x    frame=21140 fps=418 q=-0.0 size=N/A time=00:14:41.71 bitrate=N/A speed=17.4x    frame=21333 fps=418 q=-0.0 size=N/A time=00:14:49.76 bitrate=N/A speed=17.4x    frame=21600 fps=419 q=-0.0 size=N/A time=00:15:00.90 bitrate=N/A speed=17.5x    frame=21791 fps=418 q=-0.0 size=N/A time=00:15:08.86 bitrate=N/A speed=17.4x    frame=22012 fps=418 q=-0.0 size=N/A time=00:15:18.08 bitrate=N/A speed=17.4x    frame=22246 fps=418 q=-0.0 size=N/A time=00:15:27.84 bitrate=N/A speed=17.5x    frame=22450 fps=418 q=-0.0 size=N/A time=00:15:36.35 bitrate=N/A speed=17.4x    frame=22632 fps=418 q=-0.0 size=N/A time=00:15:43.94 bitrate=N/A speed=17.4x    frame=22838 fps=417 q=-0.0 size=N/A time=00:15:52.53 bitrate=N/A speed=17.4x    frame=23074 fps=418 q=-0.0 size=N/A time=00:16:02.37 bitrate=N/A speed=17.4x    frame=23300 fps=418 q=-0.0 size=N/A time=00:16:11.80 bitrate=N/A speed=17.4x    frame=23492 fps=418 q=-0.0 size=N/A time=00:16:19.81 bitrate=N/A speed=17.4x    frame=23682 fps=417 q=-0.0 size=N/A time=00:16:27.73 bitrate=N/A speed=17.4x    frame=23889 fps=417 q=-0.0 size=N/A time=00:16:36.37 bitrate=N/A speed=17.4x    frame=24073 fps=416 q=-0.0 size=N/A time=00:16:44.04 bitrate=N/A speed=17.4x    frame=24285 fps=416 q=-0.0 size=N/A time=00:16:52.88 bitrate=N/A speed=17.4x    frame=24557 fps=417 q=-0.0 size=N/A time=00:17:04.23 bitrate=N/A speed=17.4x    frame=24793 fps=418 q=-0.0 size=N/A time=00:17:14.07 bitrate=N/A speed=17.4x    frame=25048 fps=418 q=-0.0 size=N/A time=00:17:24.71 bitrate=N/A speed=17.5x    frame=25289 fps=419 q=-0.0 size=N/A time=00:17:34.76 bitrate=N/A speed=17.5x    frame=25518 fps=419 q=-0.0 size=N/A time=00:17:44.31 bitrate=N/A speed=17.5x    frame=25715 fps=419 q=-0.0 size=N/A time=00:17:52.52 bitrate=N/A speed=17.5x    frame=25909 fps=418 q=-0.0 size=N/A time=00:18:00.62 bitrate=N/A speed=17.5x    frame=26154 fps=419 q=-0.0 size=N/A time=00:18:10.83 bitrate=N/A speed=17.5x    frame=26378 fps=419 q=-0.0 size=N/A time=00:18:20.18 bitrate=N/A speed=17.5x    frame=26627 fps=419 q=-0.0 size=N/A time=00:18:30.56 bitrate=N/A speed=17.5x    frame=26864 fps=420 q=-0.0 size=N/A time=00:18:40.45 bitrate=N/A speed=17.5x    frame=27096 fps=420 q=-0.0 size=N/A time=00:18:50.12 bitrate=N/A speed=17.5x    frame=27342 fps=421 q=-0.0 size=N/A time=00:19:00.38 bitrate=N/A speed=17.5x    frame=27601 fps=421 q=-0.0 size=N/A time=00:19:11.19 bitrate=N/A speed=17.6x    frame=27854 fps=422 q=-0.0 size=N/A time=00:19:21.74 bitrate=N/A speed=17.6x    frame=28122 fps=422 q=-0.0 size=N/A time=00:19:32.92 bitrate=N/A speed=17.6x    frame=28369 fps=423 q=-0.0 size=N/A time=00:19:43.22 bitrate=N/A speed=17.6x    frame=28636 fps=424 q=-0.0 size=N/A time=00:19:54.35 bitrate=N/A speed=17.7x    frame=28899 fps=424 q=-0.0 size=N/A time=00:20:05.32 bitrate=N/A speed=17.7x    frame=29163 fps=425 q=-0.0 size=N/A time=00:20:16.34 bitrate=N/A speed=17.7x    frame=29427 fps=425 q=-0.0 size=N/A time=00:20:27.35 bitrate=N/A speed=17.7x    frame=29666 fps=426 q=-0.0 size=N/A time=00:20:37.31 bitrate=N/A speed=17.8x    frame=29913 fps=426 q=-0.0 size=N/A time=00:20:47.62 bitrate=N/A speed=17.8x    frame=30199 fps=427 q=-0.0 size=N/A time=00:20:59.54 bitrate=N/A speed=17.8x    frame=30469 fps=428 q=-0.0 size=N/A time=00:21:10.81 bitrate=N/A speed=17.8x    frame=30729 fps=428 q=-0.0 size=N/A time=00:21:21.65 bitrate=N/A speed=17.9x    frame=31006 fps=429 q=-0.0 size=N/A time=00:21:33.20 bitrate=N/A speed=17.9x    frame=31282 fps=430 q=-0.0 size=N/A time=00:21:44.72 bitrate=N/A speed=17.9x    frame=31555 fps=431 q=-0.0 size=N/A time=00:21:56.10 bitrate=N/A speed=  18x    frame=31798 fps=431 q=-0.0 size=N/A time=00:22:06.24 bitrate=N/A speed=  18x    frame=32012 fps=431 q=-0.0 size=N/A time=00:22:15.16 bitrate=N/A speed=  18x    frame=32245 fps=431 q=-0.0 size=N/A time=00:22:24.88 bitrate=N/A speed=  18x    frame=32446 fps=431 q=-0.0 size=N/A time=00:22:33.26 bitrate=N/A speed=  18x    frame=32652 fps=430 q=-0.0 size=N/A time=00:22:41.86 bitrate=N/A speed=  18x    frame=32864 fps=430 q=-0.0 size=N/A time=00:22:50.70 bitrate=N/A speed=17.9x    frame=33066 fps=430 q=-0.0 size=N/A time=00:22:59.12 bitrate=N/A speed=17.9x    frame=33285 fps=430 q=-0.0 size=N/A time=00:23:08.26 bitrate=N/A speed=17.9x    frame=33481 fps=430 q=-0.0 size=N/A time=00:23:16.43 bitrate=N/A speed=17.9x    frame=33634 fps=429 q=-0.0 size=N/A time=00:23:22.81 bitrate=N/A speed=17.9x    frame=33815 fps=428 q=-0.0 size=N/A time=00:23:30.36 bitrate=N/A speed=17.9x    frame=34006 fps=428 q=-0.0 size=N/A time=00:23:38.33 bitrate=N/A speed=17.8x    frame=34224 fps=428 q=-0.0 size=N/A time=00:23:47.42 bitrate=N/A speed=17.8x    frame=34426 fps=428 q=-0.0 size=N/A time=00:23:55.85 bitrate=N/A speed=17.8x    [Parsed_psnr_10 @ 000002af477a4880] PSNR y:48.472007 u:49.455295 v:49.189068 average:48.736733 min:37.172021 max:inf
[out#0/null @ 000002af44e6ec00] video:14858KiB audio:270728KiB subtitle:0KiB other streams:0KiB global headers:0KiB muxing overhead: unknown
frame=34578 fps=427 q=-0.0 Lsize=N/A time=00:24:02.19 bitrate=N/A speed=17.8x    
